HIERARCHY
ROOT mixamorig:Hips
{
	OFFSET -0.000000 103.991470 2.076077 
	CHANNELS 6 Xposition Yposition Zposition Xrotation Yrotation Zrotation
	JOINT mixamorig:Spine
	{
		OFFSET 0.000009 10.181587 0.131521 
		CHANNELS 6 Xposition Yposition Zposition Xrotation Yrotation Zrotation
		JOINT mixamorig:Spine1
		{
			OFFSET 0.000000 10.083450 -1.000804 
			CHANNELS 6 Xposition Yposition Zposition Xrotation Yrotation Zrotation
			JOINT mixamorig:Spine2
			{
				OFFSET 0.000000 9.100014 -1.373417 
				CHANNELS 6 Xposition Yposition Zposition Xrotation Yrotation Zrotation
				JOINT mixamorig:Neck
				{
					OFFSET 0.000001 16.671661 -2.516168 
					CHANNELS 6 Xposition Yposition Zposition Xrotation Yrotation Zrotation
					JOINT mixamorig:Head
					{
						OFFSET -0.000000 9.617889 1.685008 
						CHANNELS 6 Xposition Yposition Zposition Xrotation Yrotation Zrotation
						JOINT mixamorig:HeadTop_End
						{
							OFFSET -0.000001 17.815155 2.584985 
							CHANNELS 6 Xposition Yposition Zposition Xrotation Yrotation Zrotation
							End Site
							{
								OFFSET 0.000000 13.794479 0.000000 
							}
						}
						JOINT mixamorig:LeftEye
						{
							OFFSET 3.067561 6.409500 9.283554 
							CHANNELS 6 Xposition Yposition Zposition Xrotation Yrotation Zrotation
							End Site
							{
								OFFSET 0.000000 13.794479 0.000000 
							}
						}
						JOINT mixamorig:RightEye
						{
							OFFSET -3.067550 6.409500 9.283547 
							CHANNELS 6 Xposition Yposition Zposition Xrotation Yrotation Zrotation
							End Site
							{
								OFFSET 0.000000 13.794479 0.000000 
							}
						}
					}
				}
				JOINT mixamorig:LeftShoulder
				{
					OFFSET 4.570446 10.945984 -2.627988 
					CHANNELS 6 Xposition Yposition Zposition Xrotation Yrotation Zrotation
					JOINT mixamorig:LeftArm
					{
						OFFSET 10.592371 -0.524582 -2.232120 
						CHANNELS 6 Xposition Yposition Zposition Xrotation Yrotation Zrotation
						JOINT mixamorig:LeftForeArm
						{
							OFFSET 27.841522 -0.000092 0.000038 
							CHANNELS 6 Xposition Yposition Zposition Xrotation Yrotation Zrotation
							JOINT mixamorig:LeftHand
							{
								OFFSET 28.328835 -0.000015 0.000038 
								CHANNELS 6 Xposition Yposition Zposition Xrotation Yrotation Zrotation
								JOINT mixamorig:LeftHandThumb1
								{
									OFFSET 2.466141 -1.575058 2.682414 
									CHANNELS 6 Xposition Yposition Zposition Xrotation Yrotation Zrotation
									JOINT mixamorig:LeftHandThumb2
									{
										OFFSET 3.229805 -1.864685 1.864681 
										CHANNELS 6 Xposition Yposition Zposition Xrotation Yrotation Zrotation
										JOINT mixamorig:LeftHandThumb3
										{
											OFFSET 2.652565 -1.531494 1.531472 
											CHANNELS 6 Xposition Yposition Zposition Xrotation Yrotation Zrotation
											JOINT mixamorig:LeftHandThumb4
											{
												OFFSET 1.954567 -1.128494 1.128492 
												CHANNELS 6 Xposition Yposition Zposition Xrotation Yrotation Zrotation
												End Site
												{
													OFFSET 0.000000 2.523361 0.000000 
												}
											}
										}
									}
								}
								JOINT mixamorig:LeftHandIndex1
								{
									OFFSET 9.109306 -0.517090 2.260073 
									CHANNELS 6 Xposition Yposition Zposition Xrotation Yrotation Zrotation
									JOINT mixamorig:LeftHandIndex2
									{
										OFFSET 3.676407 0.000000 0.000029 
										CHANNELS 6 Xposition Yposition Zposition Xrotation Yrotation Zrotation
										JOINT mixamorig:LeftHandIndex3
										{
											OFFSET 2.883064 0.000031 -0.000043 
											CHANNELS 6 Xposition Yposition Zposition Xrotation Yrotation Zrotation
											JOINT mixamorig:LeftHandIndex4
											{
												OFFSET 2.392723 0.000031 0.000034 
												CHANNELS 6 Xposition Yposition Zposition Xrotation Yrotation Zrotation
												End Site
												{
													OFFSET 0.000000 2.392715 0.000000 
												}
											}
										}
									}
								}
								JOINT mixamorig:LeftHandMiddle1
								{
									OFFSET 9.533401 -0.000031 0.000014 
									CHANNELS 6 Xposition Yposition Zposition Xrotation Yrotation Zrotation
									JOINT mixamorig:LeftHandMiddle2
									{
										OFFSET 3.698235 0.000000 0.000018 
										CHANNELS 6 Xposition Yposition Zposition Xrotation Yrotation Zrotation
										JOINT mixamorig:LeftHandMiddle3
										{
											OFFSET 2.950928 -0.000046 0.000016 
											CHANNELS 6 Xposition Yposition Zposition Xrotation Yrotation Zrotation
											JOINT mixamorig:LeftHandMiddle4
											{
												OFFSET 2.833900 -0.000046 -0.000010 
												CHANNELS 6 Xposition Yposition Zposition Xrotation Yrotation Zrotation
												End Site
												{
													OFFSET 0.000000 2.833908 0.000000 
												}
											}
										}
									}
								}
								JOINT mixamorig:LeftHandRing1
								{
									OFFSET 9.104530 -0.043945 -1.865085 
									CHANNELS 6 Xposition Yposition Zposition Xrotation Yrotation Zrotation
									JOINT mixamorig:LeftHandRing2
									{
										OFFSET 3.154022 0.000000 0.000010 
										CHANNELS 6 Xposition Yposition Zposition Xrotation Yrotation Zrotation
										JOINT mixamorig:LeftHandRing3
										{
											OFFSET 2.937675 -0.000046 -0.000007 
											CHANNELS 6 Xposition Yposition Zposition Xrotation Yrotation Zrotation
											JOINT mixamorig:LeftHandRing4
											{
												OFFSET 2.647453 -0.000046 0.000000 
												CHANNELS 6 Xposition Yposition Zposition Xrotation Yrotation Zrotation
												End Site
												{
													OFFSET 0.000000 2.647446 0.000000 
												}
											}
										}
									}
								}
								JOINT mixamorig:LeftHandPinky1
								{
									OFFSET 8.077782 -0.488663 -3.806067 
									CHANNELS 6 Xposition Yposition Zposition Xrotation Yrotation Zrotation
									JOINT mixamorig:LeftHandPinky2
									{
										OFFSET 3.600029 -0.000015 -0.000027 
										CHANNELS 6 Xposition Yposition Zposition Xrotation Yrotation Zrotation
										JOINT mixamorig:LeftHandPinky3
										{
											OFFSET 2.114212 0.000031 -0.000003 
											CHANNELS 6 Xposition Yposition Zposition Xrotation Yrotation Zrotation
											JOINT mixamorig:LeftHandPinky4
											{
												OFFSET 1.975685 0.000015 -0.000044 
												CHANNELS 6 Xposition Yposition Zposition Xrotation Yrotation Zrotation
												End Site
												{
													OFFSET 0.000000 1.975677 0.000000 
												}
											}
										}
									}
								}
							}
						}
					}
				}
				JOINT mixamorig:RightShoulder
				{
					OFFSET -4.569970 10.946182 -2.628017 
					CHANNELS 6 Xposition Yposition Zposition Xrotation Yrotation Zrotation
					JOINT mixamorig:RightArm
					{
						OFFSET -10.592844 -0.524811 -2.232099 
						CHANNELS 6 Xposition Yposition Zposition Xrotation Yrotation Zrotation
						JOINT mixamorig:RightForeArm
						{
							OFFSET -27.841522 -0.000031 0.000012 
							CHANNELS 6 Xposition Yposition Zposition Xrotation Yrotation Zrotation
							JOINT mixamorig:RightHand
							{
								OFFSET -28.328835 0.000000 0.000056 
								CHANNELS 6 Xposition Yposition Zposition Xrotation Yrotation Zrotation
								JOINT mixamorig:RightHandPinky1
								{
									OFFSET -8.076675 -0.488449 -3.806010 
									CHANNELS 6 Xposition Yposition Zposition Xrotation Yrotation Zrotation
									JOINT mixamorig:RightHandPinky2
									{
										OFFSET -3.600037 0.000031 0.000051 
										CHANNELS 6 Xposition Yposition Zposition Xrotation Yrotation Zrotation
										JOINT mixamorig:RightHandPinky3
										{
											OFFSET -2.114212 0.000015 0.000015 
											CHANNELS 6 Xposition Yposition Zposition Xrotation Yrotation Zrotation
											JOINT mixamorig:RightHandPinky4
											{
												OFFSET -1.975685 -0.000015 -0.000001 
												CHANNELS 6 Xposition Yposition Zposition Xrotation Yrotation Zrotation
												End Site
												{
													OFFSET 0.000000 1.975677 0.000000 
												}
											}
										}
									}
								}
								JOINT mixamorig:RightHandRing1
								{
									OFFSET -9.103592 -0.043915 -1.865072 
									CHANNELS 6 Xposition Yposition Zposition Xrotation Yrotation Zrotation
									JOINT mixamorig:RightHandRing2
									{
										OFFSET -3.154022 0.000031 0.000049 
										CHANNELS 6 Xposition Yposition Zposition Xrotation Yrotation Zrotation
										JOINT mixamorig:RightHandRing3
										{
											OFFSET -2.937675 -0.000046 -0.000040 
											CHANNELS 6 Xposition Yposition Zposition Xrotation Yrotation Zrotation
											JOINT mixamorig:RightHandRing4
											{
												OFFSET -2.647453 0.000031 -0.000002 
												CHANNELS 6 Xposition Yposition Zposition Xrotation Yrotation Zrotation
												End Site
												{
													OFFSET 0.000000 2.647446 0.000000 
												}
											}
										}
									}
								}
								JOINT mixamorig:RightHandMiddle1
								{
									OFFSET -9.532509 -0.000015 0.000017 
									CHANNELS 6 Xposition Yposition Zposition Xrotation Yrotation Zrotation
									JOINT mixamorig:RightHandMiddle2
									{
										OFFSET -3.698235 0.000015 -0.000022 
										CHANNELS 6 Xposition Yposition Zposition Xrotation Yrotation Zrotation
										JOINT mixamorig:RightHandMiddle3
										{
											OFFSET -2.950920 0.000000 -0.000000 
											CHANNELS 6 Xposition Yposition Zposition Xrotation Yrotation Zrotation
											JOINT mixamorig:RightHandMiddle4
											{
												OFFSET -2.833900 0.000015 0.000054 
												CHANNELS 6 Xposition Yposition Zposition Xrotation Yrotation Zrotation
												End Site
												{
													OFFSET 0.000000 2.833908 0.000000 
												}
											}
										}
									}
								}
								JOINT mixamorig:RightHandIndex1
								{
									OFFSET -9.108284 -0.516785 2.260116 
									CHANNELS 6 Xposition Yposition Zposition Xrotation Yrotation Zrotation
									JOINT mixamorig:RightHandIndex2
									{
										OFFSET -3.676407 0.000015 0.000032 
										CHANNELS 6 Xposition Yposition Zposition Xrotation Yrotation Zrotation
										JOINT mixamorig:RightHandIndex3
										{
											OFFSET -2.883064 -0.000046 0.000040 
											CHANNELS 6 Xposition Yposition Zposition Xrotation Yrotation Zrotation
											JOINT mixamorig:RightHandIndex4
											{
												OFFSET -2.392723 0.000031 0.000028 
												CHANNELS 6 Xposition Yposition Zposition Xrotation Yrotation Zrotation
												End Site
												{
													OFFSET 0.000000 2.392715 0.000000 
												}
											}
										}
									}
								}
								JOINT mixamorig:RightHandThumb1
								{
									OFFSET -2.464806 -1.572708 2.682626 
									CHANNELS 6 Xposition Yposition Zposition Xrotation Yrotation Zrotation
									JOINT mixamorig:RightHandThumb2
									{
										OFFSET -3.229774 -1.864716 1.864719 
										CHANNELS 6 Xposition Yposition Zposition Xrotation Yrotation Zrotation
										JOINT mixamorig:RightHandThumb3
										{
											OFFSET -2.652603 -1.531448 1.531446 
											CHANNELS 6 Xposition Yposition Zposition Xrotation Yrotation Zrotation
											JOINT mixamorig:RightHandThumb4
											{
												OFFSET -1.954582 -1.128464 1.128507 
												CHANNELS 6 Xposition Yposition Zposition Xrotation Yrotation Zrotation
												End Site
												{
													OFFSET 0.000000 2.523361 0.000000 
												}
											}
										}
									}
								}
							}
						}
					}
				}
			}
		}
	}
	JOINT mixamorig:LeftUpLeg
	{
		OFFSET 8.207782 -6.751717 -1.599555 
		CHANNELS 6 Xposition Yposition Zposition Xrotation Yrotation Zrotation
		JOINT mixamorig:LeftLeg
		{
			OFFSET -0.000001 -44.370472 0.284643 
			CHANNELS 6 Xposition Yposition Zposition Xrotation Yrotation Zrotation
			JOINT mixamorig:LeftFoot
			{
				OFFSET 0.000001 -44.427872 -2.982191 
				CHANNELS 6 Xposition Yposition Zposition Xrotation Yrotation Zrotation
				JOINT mixamorig:LeftToeBase
				{
					OFFSET -0.000003 -8.728670 10.710560 
					CHANNELS 6 Xposition Yposition Zposition Xrotation Yrotation Zrotation
					JOINT mixamorig:LeftToe_End
					{
						OFFSET -0.000003 -0.000677 9.278137 
						CHANNELS 6 Xposition Yposition Zposition Xrotation Yrotation Zrotation
						End Site
						{
							OFFSET 0.000000 9.278136 0.000000 
						}
					}
				}
			}
		}
	}
	JOINT mixamorig:RightUpLeg
	{
		OFFSET -8.207796 -6.751663 -1.599559 
		CHANNELS 6 Xposition Yposition Zposition Xrotation Yrotation Zrotation
		JOINT mixamorig:RightLeg
		{
			OFFSET 0.000000 -44.370537 0.286156 
			CHANNELS 6 Xposition Yposition Zposition Xrotation Yrotation Zrotation
			JOINT mixamorig:RightFoot
			{
				OFFSET 0.000001 -44.427731 -2.983789 
				CHANNELS 6 Xposition Yposition Zposition Xrotation Yrotation Zrotation
				JOINT mixamorig:RightToeBase
				{
					OFFSET -0.000002 -8.728668 10.710562 
					CHANNELS 6 Xposition Yposition Zposition Xrotation Yrotation Zrotation
					JOINT mixamorig:RightToe_End
					{
						OFFSET -0.000002 -0.000676 9.278120 
						CHANNELS 6 Xposition Yposition Zposition Xrotation Yrotation Zrotation
						End Site
						{
							OFFSET 0.000000 9.278120 0.000000 
						}
					}
				}
			}
		}
	}
}
MOTION
Frames: 3
Frame Time: 0.033333
0.090278 -2.914562 1.616363 1.940061 1.935550 -0.231217 0.000009 10.181596 0.131522 6.176191 -1.270787 0.116214 0.000000 10.083455 -1.000805 2.498171 -2.419468 1.232352 0.000001 9.100021 -1.373418 2.471491 -2.375261 1.342051 0.000001 16.671661 -2.516168 -0.476781 2.129174 -0.237485 -0.000001 9.617874 1.685004 -3.193112 4.531020 -1.876713 -0.000001 17.815155 2.584984 -0.000000 -0.000000 0.000000 3.067561 6.409500 9.283551 -0.000000 -0.000000 0.000000 -3.067550 6.409500 9.283546 -0.000000 -0.000000 0.000000 4.570445 10.945979 -2.627987 0.352373 -9.169219 -14.380733 10.592379 -0.524585 -2.232113 9.011959 -24.442282 -57.554382 27.841524 -0.000088 0.000032 -0.000038 -11.061376 -0.000202 28.328835 -0.000004 0.000038 3.297442 3.562008 -10.595913 2.466141 -1.575059 2.682414 5.255727 3.572949 10.856594 3.229812 -1.864701 1.864682 6.477477 8.368276 6.365073 2.652568 -1.531480 1.531469 2.012466 -7.317977 21.365959 1.954567 -1.128482 1.128487 0.000001 -0.000002 -0.000000 9.109307 -0.517091 2.260073 -2.235062 -4.163215 -17.700809 3.676399 -0.000020 0.000028 0.201793 1.522410 -15.100093 2.883064 0.000044 -0.000042 0.201797 1.522385 -15.100141 2.392711 0.000028 0.000030 0.000001 0.000001 0.000002 9.533404 -0.000030 0.000012 0.432232 4.475112 -26.652050 3.698233 -0.000001 0.000021 0.125640 1.205270 -11.901094 2.950932 -0.000028 0.000018 0.170943 1.403125 -13.891697 2.833898 -0.000051 -0.000007 0.000002 0.000001 0.000001 9.104548 -0.043949 -1.865085 1.630720 6.785739 -27.451662 3.154018 -0.000002 0.000012 0.329354 1.933922 -19.327738 2.937660 -0.000049 -0.000005 0.399757 2.123909 -21.316404 2.647455 -0.000047 -0.000004 -0.000000 0.000001 -0.000001 8.077772 -0.488655 -3.806068 2.780433 8.679383 -34.056423 3.600027 -0.000012 -0.000026 0.276727 1.776888 -17.702810 2.114213 0.000027 -0.000005 0.276734 1.776892 -17.702799 1.975689 0.000015 -0.000047 0.000000 -0.000000 -0.000001 -4.569966 10.946183 -2.628021 0.552462 4.135211 15.717218 -10.592823 -0.524762 -2.232097 2.585509 28.440239 49.448715 -27.841526 -0.000031 0.000012 -0.000000 23.198553 0.000023 -28.328854 0.000019 0.000053 -1.343623 0.940350 5.903687 -8.076658 -0.488449 -3.806010 -0.269390 -3.428417 29.324621 -3.600037 0.000038 0.000052 0.566531 -2.219660 28.613098 -2.114218 0.000012 0.000011 0.177098 -1.269625 15.880542 -1.975676 -0.000015 -0.000000 0.000003 0.000000 0.000003 -9.103585 -0.043919 -1.865070 -0.271337 -2.574369 24.355347 -3.154010 0.000032 0.000053 1.497408 -3.411288 47.388554 -2.937663 -0.000036 -0.000038 0.371934 -1.819951 23.098377 -2.647454 0.000046 -0.000002 0.000000 0.000000 0.000000 -9.532508 0.000000 0.000020 -1.116229 -0.317466 22.216213 -3.698217 0.000019 -0.000022 0.853279 -2.680405 35.311111 -2.950927 0.000015 -0.000000 0.295121 -1.628211 20.520716 -2.833897 0.000017 0.000054 -0.000000 0.000000 0.000002 -9.108286 -0.516789 2.260117 -2.606443 4.010500 20.790991 -3.676401 0.000015 0.000035 0.392699 -1.867862 23.743479 -2.883074 -0.000047 0.000041 0.077418 -0.844069 10.480409 -2.392720 0.000028 0.000028 -0.000002 -0.000002 -0.000001 -2.464797 -1.572715 2.682629 12.594551 -3.083682 -3.827440 -3.229749 -1.864705 1.864720 4.964383 -19.017126 -8.076274 -2.652611 -1.531443 1.531448 -16.136389 -1.573612 -12.131563 -1.954573 -1.128448 1.128505 0.000003 0.000000 -0.000001 8.207782 -6.751717 -1.599554 -28.621553 9.106612 4.875883 0.000000 -44.370472 0.284650 57.047943 -4.639654 -0.541529 -0.000000 -44.427876 -2.982190 0.218358 0.064224 -1.518538 -0.000004 -8.728674 10.710561 -8.204107 0.000004 -0.000001 -0.000003 -0.000677 9.278137 0.000004 -0.000001 -0.000000 -8.207796 -6.751656 -1.599560 -13.126665 -7.407901 1.737984 0.000000 -44.370537 0.286152 19.885292 2.773808 -3.690364 0.000001 -44.427731 -2.983787 -9.456703 -0.007450 0.255700 -0.000002 -8.728668 10.710561 -4.971788 0.000000 0.000000 -0.000001 -0.000676 9.278120 -0.000000 0.000000 0.000000 
0.223311 -2.166347 6.782416 2.536881 1.365409 -0.019421 0.000009 10.181593 0.131522 5.777629 -0.301449 -0.160591 0.000000 10.083448 -1.000801 2.234220 -1.840796 0.676535 0.000000 9.100018 -1.373416 2.217203 -1.797398 0.769948 0.000001 16.671682 -2.516165 -0.432899 1.886102 -0.364865 -0.000000 9.617880 1.685005 -2.834825 3.316963 -1.875546 -0.000001 17.815155 2.584987 -0.000000 -0.000000 0.000000 3.067560 6.409515 9.283555 -0.000000 -0.000000 0.000000 -3.067551 6.409500 9.283549 -0.000000 -0.000000 0.000000 4.570445 10.945998 -2.627984 0.400752 -8.194773 -14.189450 10.592384 -0.524585 -2.232118 11.473786 -20.864431 -59.377914 27.841522 -0.000093 0.000035 -0.000041 -11.041846 -0.000209 28.328854 -0.000014 0.000037 2.966882 2.335768 -13.707618 2.466125 -1.575058 2.682413 5.255729 3.572949 10.856595 3.229787 -1.864664 1.864683 5.764403 7.924786 6.754720 2.652560 -1.531488 1.531475 2.015495 -6.993409 21.323338 1.954557 -1.128497 1.128495 -0.000001 -0.000002 0.000001 9.109290 -0.517090 2.260072 -2.285159 -4.883958 -16.719215 3.676412 -0.000002 0.000030 0.202129 1.523642 -15.112781 2.883068 0.000016 -0.000041 0.202133 1.523644 -15.112792 2.392731 0.000031 0.000035 0.000001 -0.000002 -0.000000 9.533389 -0.000016 0.000014 0.336738 4.262389 -25.880148 3.698236 0.000018 0.000022 0.125719 1.205643 -11.904898 2.950926 -0.000032 0.000011 0.171033 1.403492 -13.895439 2.833911 -0.000046 -0.000008 0.000001 -0.000001 -0.000001 9.104518 -0.043943 -1.865085 1.566332 6.739008 -26.405243 3.154017 -0.000011 0.000011 0.329354 1.933931 -19.327915 2.937678 -0.000043 -0.000013 0.399760 2.123920 -21.316450 2.647454 -0.000046 -0.000000 -0.000000 0.000001 -0.000000 8.077757 -0.488670 -3.806067 2.835612 8.858247 -33.513195 3.600043 0.000002 -0.000021 0.277464 1.779186 -17.726521 2.114217 0.000033 0.000004 0.277470 1.779191 -17.726519 1.975675 0.000013 -0.000046 0.000001 -0.000002 -0.000002 -4.569966 10.946212 -2.628016 0.538062 4.449558 15.461680 -10.592847 -0.524795 -2.232103 2.369809 30.529726 47.477058 -27.841496 -0.000031 0.000010 -0.000013 25.998777 0.000022 -28.328846 -0.000005 0.000056 -1.077888 -1.864333 8.081104 -8.076677 -0.488461 -3.806006 -0.383401 -3.303016 29.554892 -3.600036 0.000027 0.000050 0.568643 -2.223529 28.667599 -2.114227 0.000016 0.000015 0.178216 -1.273574 15.931384 -1.975690 -0.000029 0.000003 -0.000000 -0.000001 -0.000001 -9.103617 -0.043898 -1.865073 -0.325427 -2.474432 24.604624 -3.154011 0.000034 0.000050 1.499779 -3.413468 47.428493 -2.937680 -0.000015 -0.000042 0.373181 -1.822891 23.137770 -2.647457 0.000045 -0.000005 -0.000001 -0.000001 0.000001 -9.532506 -0.000017 0.000022 -1.183443 -0.237794 22.670925 -3.698234 0.000012 -0.000021 0.855248 -2.683174 35.353024 -2.950914 0.000010 0.000002 0.296295 -1.631355 20.562214 -2.833903 0.000018 0.000058 0.000002 -0.000001 0.000001 -9.108279 -0.516783 2.260119 -2.667303 4.014554 21.169434 -3.676409 0.000016 0.000037 0.392868 -1.868250 23.748800 -2.883056 -0.000045 0.000045 0.077482 -0.844495 10.485756 -2.392723 0.000032 0.000022 -0.000003 0.000000 -0.000000 -2.464804 -1.572714 2.682631 12.594546 -3.083686 -3.827435 -3.229769 -1.864690 1.864719 4.828919 -18.767342 -8.132629 -2.652613 -1.531457 1.531450 -16.137577 -1.567507 -12.131783 -1.954576 -1.128459 1.128511 0.000002 -0.000002 -0.000003 8.207782 -6.751725 -1.599553 -30.617823 9.098352 3.854200 0.000000 -44.370461 0.284651 43.092136 -2.324745 -2.033097 -0.000001 -44.427876 -2.982191 0.049103 0.167796 -3.187506 -0.000003 -8.728670 10.710562 -6.394409 0.000004 -0.000002 -0.000004 -0.000677 9.278139 -0.000000 -0.000001 -0.000000 -8.207796 -6.751655 -1.599560 -7.239773 -8.108953 2.157622 -0.000000 -44.370529 0.286158 13.749470 4.315109 -4.346178 0.000001 -44.427731 -2.983788 -10.373491 -0.075607 0.765501 -0.000002 -8.728670 10.710561 -4.671633 -0.000001 -0.000000 -0.000002 -0.000676 9.278120 0.000000 0.000000 0.000000 
0.424074 -2.183857 11.902227 3.182701 0.733586 -0.097621 0.000009 10.181587 0.131522 5.334832 0.693805 0.229940 0.000000 10.083454 -1.000802 2.013599 -1.243921 -0.033867 0.000000 9.100020 -1.373423 1.997117 -1.211860 0.044632 0.000001 16.671648 -2.516165 -0.524806 1.552777 -0.248575 -0.000001 9.617880 1.685010 -2.830586 2.299517 -1.873583 -0.000001 17.815155 2.584982 -0.000000 -0.000000 0.000000 3.067560 6.409485 9.283554 -0.000000 -0.000000 0.000000 -3.067550 6.409485 9.283547 -0.000000 -0.000000 0.000000 4.570445 10.945981 -2.627985 0.440412 -7.293197 -14.075029 10.592361 -0.524563 -2.232121 13.705670 -17.314060 -61.273026 27.841526 -0.000089 0.000033 -0.000038 -10.936219 -0.000204 28.328856 -0.000016 0.000037 2.738639 0.644515 -15.244296 2.466141 -1.575062 2.682414 5.255724 3.572949 10.856596 3.229805 -1.864692 1.864680 5.814426 7.757302 6.704431 2.652557 -1.531499 1.531471 2.015152 -6.995479 21.312449 1.954556 -1.128492 1.128492 -0.000002 -0.000001 -0.000002 9.109303 -0.517076 2.260073 -2.240347 -4.814534 -16.565166 3.676406 -0.000004 0.000030 0.202482 1.524948 -15.126028 2.883070 0.000048 -0.000041 0.202483 1.524957 -15.126048 2.392733 0.000018 0.000031 -0.000002 0.000000 -0.000001 9.533404 -0.000033 0.000012 0.329158 4.244903 -25.816959 3.698237 0.000001 0.000020 0.126073 1.207372 -11.922202 2.950929 -0.000032 0.000017 0.171467 1.405197 -13.912766 2.833914 -0.000042 -0.000008 -0.000002 -0.000001 0.000001 9.104543 -0.043949 -1.865086 1.567070 6.744834 -26.348820 3.154030 -0.000016 0.000004 0.329135 1.933318 -19.321571 2.937662 -0.000034 -0.000005 0.399528 2.123322 -21.310059 2.647452 -0.000032 0.000002 0.000001 0.000001 0.000000 8.077768 -0.488680 -3.806070 2.772016 8.745944 -33.493156 3.600034 0.000020 -0.000019 0.277108 1.778081 -17.715061 2.114217 0.000011 0.000000 0.277113 1.778077 -17.715059 1.975688 0.000029 -0.000045 0.000001 -0.000002 -0.000001 -4.569967 10.946173 -2.628014 0.529703 4.787505 14.711462 -10.592846 -0.524799 -2.232097 2.276072 32.199215 45.124310 -27.841532 -0.000027 0.000009 0.000004 30.314932 -0.000001 -28.328848 0.000005 0.000052 -0.037747 -4.736373 10.369746 -8.076677 -0.488450 -3.806009 -0.891251 -2.750624 30.351715 -3.600034 0.000028 0.000047 0.569294 -2.224736 28.684488 -2.114209 0.000011 0.000012 0.178229 -1.273594 15.931498 -1.975674 -0.000017 0.000001 -0.000000 0.000002 0.000002 -9.103616 -0.043913 -1.865072 -0.463440 -2.257262 25.531994 -3.154007 0.000023 0.000047 1.502902 -3.416332 47.480991 -2.937673 -0.000014 -0.000039 0.374815 -1.826686 23.188843 -2.647449 0.000016 -0.000002 0.000000 0.000002 -0.000002 -9.532512 0.000003 0.000021 -1.268735 -0.204115 23.565454 -3.698228 0.000015 -0.000025 0.856895 -2.685500 35.388420 -2.950920 0.000018 -0.000001 0.297288 -1.633991 20.597164 -2.833900 0.000019 0.000051 -0.000000 -0.000003 -0.000000 -9.108294 -0.516787 2.260119 -2.881387 4.004636 22.531664 -3.676408 0.000016 0.000037 0.390263 -1.862345 23.669081 -2.883051 -0.000044 0.000032 0.076333 -0.838154 10.406090 -2.392729 0.000029 0.000028 -0.000003 -0.000001 -0.000001 -2.464814 -1.572716 2.682628 12.594548 -3.083683 -3.827435 -3.229768 -1.864706 1.864716 5.229293 -17.724466 -7.869431 -2.652603 -1.531447 1.531450 -16.151545 -1.496181 -12.134450 -1.954579 -1.128465 1.128504 -0.000001 0.000002 0.000002 8.207782 -6.751706 -1.599553 -29.683323 8.576907 2.598352 0.000001 -44.370464 0.284642 23.572996 0.856973 -2.515735 0.000001 -44.427872 -2.982197 2.766812 0.127780 -4.235658 -0.000002 -8.728672 10.710552 -5.376336 0.000005 -0.000001 -0.000002 -0.000677 9.278137 0.000000 0.000001 -0.000000 -8.207796 -6.751674 -1.599560 -3.138336 -9.663975 2.149027 -0.000000 -44.370541 0.286157 10.876325 6.432147 -4.085886 0.000001 -44.427734 -2.983787 -12.185984 0.035145 -0.049192 -0.000003 -8.728669 10.710560 -4.486931 -0.000001 -0.000001 -0.000003 -0.000676 9.278118 -0.000000 0.000000 -0.000000 
